<svg xmlns="http://www.w3.org/2000/svg" viewBox="0 0 40 40" fill="none">
  <circle cx="20" cy="20" r="8" fill="#b8942e"/>
  <path d="M20 4 L23 10 L17 10 Z" fill="#b8942e"/>
  <path d="M20 30 L23 36 L17 36 Z" fill="#b8942e"/>
  <path d="M4 20 L10 17 L10 23 Z" fill="#b8942e"/>
  <path d="M30 20 L36 17 L36 23 Z" fill="#b8942e"/>
  <path d="M7.03 7.03 L12.73 12.73 L9.9 15.56 L4.2 9.86 Z" fill="#b8942e"/>
  <path d="M27.27 27.27 L32.97 32.97 L30.14 35.8 L24.44 30.1 Z" fill="#b8942e"/>
  <path d="M12.73 27.27 L7.03 32.97 L4.2 30.14 L9.9 24.44 Z" fill="#b8942e"/>
  <path d="M32.97 7.03 L27.27 12.73 L24.44 9.9 L30.14 4.2 Z" fill="#b8942e"/>
  <circle cx="20" cy="20" r="4" fill="#1a365d"/>
</svg>
